 <svg version="1.0" xmlns="http://www.w3.org/2000/svg" width="700.000000pt" height="672.000000pt" viewBox="0 0 700.000000 672.000000" preserveAspectRatio="xMidYMid meet">
<metadata>
Created by potrace 1.12, written by Peter Selinger 2001-2015
</metadata>
<g transform="translate(0.000000,672.000000) scale(0.100000,-0.100000)" fill="#000000" stroke="none">
<path d="M4070 2739 c-219 -22 -330 -63 -497 -181 -257 -182 -397 -318 -460
-446 l-38 -76 1 -131 c0 -154 22 -226 84 -286 95 -91 249 -60 289 60 6 19 11
96 11 171 l0 138 62 57 c63 59 145 105 185 105 29 0 47 33 33 60 -15 29 -63
26 -135 -9 -75 -35 -156 -99 -195 -153 -30 -41 -30 -43 -30 -172 0 -192 -14
-226 -94 -226 -85 0 -130 90 -131 260 0 97 2 109 30 164 54 107 206 252 445
423 112 80 154 100 269 130 119 31 371 43 473 24 90 -18 196 -63 288 -122 130
-83 260 -112 505 -113 139 -1 140 -1 143 22 6 42 -14 52 -100 52 -212 0 -397
38 -489 101 -186 126 -395 174 -649 148z"></path>
<path d="M4925 1609 c-99 -5 -225 -14 -280 -21 -95 -12 -168 -10 -245 7 l-35
8 45 -49 c53 -58 97 -70 200 -54 114 16 160 20 415 30 138 6 258 13 268 16 20
6 23 44 5 62 -13 13 -92 14 -373 1z"></path>
<path d="M2681 1559 c-70 -47 -183 -167 -230 -244 -21 -35 -34 -71 -38 -107
-5 -48 -2 -57 21 -85 29 -35 85 -58 116 -48 18 6 20 2 20 -49 0 -47 4 -60 30
-90 35 -39 84 -59 132 -54 31 3 33 1 40 -41 17 -101 126 -151 223 -101 22 11
41 20 42 20 2 0 3 -14 3 -30 0 -17 7 -44 15 -60 51 -98 179 -75 309 56 118
118 183 248 159 320 -13 40 -67 74 -116 74 -33 0 -38 3 -32 18 4 9 10 42 12
72 6 73 -18 117 -79 148 -38 19 -51 21 -87 13 -36 -8 -43 -7 -48 7 -28 90 -69
126 -147 126 -30 1 -65 -6 -85 -16 -42 -22 -41 -22 -41 2 0 12 -7 34 -15 50
-38 74 -112 81 -204 19z m129 -54 c36 -43 -67 -197 -203 -306 -56 -45 -101
-52 -112 -18 -16 48 100 207 218 300 53 42 77 48 97 24z m254 -96 c28 -22 34
-56 15 -92 -6 -12 -53 -65 -103 -117 -50 -52 -112 -123 -138 -157 -38 -50 -55
-64 -89 -73 -37 -10 -45 -9 -68 8 -61 46 -7 163 141 309 91 90 120 113 167
129 47 17 44 17 75 -7z m235 -150 c34 -61 -13 -143 -174 -304 -121 -120 -184
-162 -229 -151 -63 16 -52 98 28 209 51 71 192 213 251 252 51 34 103 32 124
-6z m139 -259 c8 -114 -264 -373 -307 -292 -38 72 188 340 279 330 21 -3 25
-9 28 -38z"></path>
</g>
</svg>